# xmcd CD database file
# Generated: Mit Jan 28 15:23:18 2004 by KSCD
# 
# Track frame offsets:
#       151
#       20698
#       44299
#       59694
#       78505
#       103832
#       121471
#       151326
#       176607
#       190734
#       207923
#       227038
#
# Disc length: 3367 seconds
#
# Revision: 1
# Processed by: cddbd v1.5PL3 Copyright (c) Steve Scherf et al.
# Submitted via: Kscd 1.3.3
#
DISCID=a30d250c
DTITLE=Rough 'n Tumble - Tarmac
DYEAR=1900
DGENRE=
TTITLE0=Can't Drive It Slow
TTITLE1=Roadhouse Blues
TTITLE2=Milk Cow Blues Boogie
TTITLE3=Let's Work Together
TTITLE4=Blues Don't Left Me
TTITLE5=Standing At The Crossroads Again
TTITLE6=Suzie Q
TTITLE7=Marlboro Girl
TTITLE8=Slippin' And Slidin'
TTITLE9=Reason To Believe
TTITLE10=I'm Ready
TTITLE11=On The Road Again
EXTD=
EXTT0=
EXTT1=
EXTT2=
EXTT3=
EXTT4=
EXTT5=
EXTT6=
EXTT7=
EXTT8=
EXTT9=
EXTT10=
EXTT11=
PLAYORDER=
